<?xml version="1.0" encoding="UTF-8" standalone="no"?>
<!-- Created with Inkscape (http://www.inkscape.org/) -->

<svg
   xmlns:dc="http://purl.org/dc/elements/1.1/"
   xmlns:cc="http://creativecommons.org/ns#"
   xmlns:rdf="http://www.w3.org/1999/02/22-rdf-syntax-ns#"
   xmlns:svg="http://www.w3.org/2000/svg"
   xmlns="http://www.w3.org/2000/svg"
   xmlns:sodipodi="http://sodipodi.sourceforge.net/DTD/sodipodi-0.dtd"
   xmlns:inkscape="http://www.inkscape.org/namespaces/inkscape"
   width="1024mm"
   height="1024mm"
   viewBox="0 0 3628.3464 3628.3464"
   id="svg4532"
   version="1.1"
   inkscape:version="0.91 r13725"
   sodipodi:docname="verre_bouteille_vin.svg"
   inkscape:export-filename="/Users/pdestrais/Downloads/verre_bouteille_vin.png"
   inkscape:export-xdpi="25.4"
   inkscape:export-ydpi="25.4">
  <defs
     id="defs4534" />
  <sodipodi:namedview
     id="base"
     pagecolor="#ffffff"
     bordercolor="#00ffff"
     borderopacity="1"
     inkscape:pageopacity="0"
     inkscape:pageshadow="2"
     inkscape:zoom="0.1866066"
     inkscape:cx="1566.0284"
     inkscape:cy="1750.7579"
     inkscape:document-units="px"
     inkscape:current-layer="layer1"
     showgrid="true"
     borderlayer="false"
     showguides="false"
     inkscape:snap-global="false"
     inkscape:window-width="1676"
     inkscape:window-height="1005"
     inkscape:window-x="4"
     inkscape:window-y="1"
     inkscape:window-maximized="1">
    <inkscape:grid
       type="xygrid"
       id="grid5096" />
  </sodipodi:namedview>
  <metadata
     id="metadata4537">
    <rdf:RDF>
      <cc:Work
         rdf:about="">
        <dc:format>image/svg+xml</dc:format>
        <dc:type
           rdf:resource="http://purl.org/dc/dcmitype/StillImage" />
        <dc:title></dc:title>
      </cc:Work>
    </rdf:RDF>
  </metadata>
  <g
     inkscape:label="Layer 1"
     inkscape:groupmode="layer"
     id="layer1"
     transform="translate(0,2575.9843)">
    <path
       style="fill:#800000;fill-opacity:1;fill-rule:evenodd;stroke:#000000;stroke-width:0.90220714px;stroke-linecap:butt;stroke-linejoin:miter;stroke-opacity:1"
       d="m 638.85221,893.215 923.07949,0 c 0,0 -1.1792,-1865.6497 -0.9464,-2056.121 -29.2639,-170.6736 -333.3197,-363.3252 -334.7188,-657.9481 -1.124,-152.9743 0,-568.7309 0,-568.7309 l -243.55151,-1.5317 c 0,0 0.3292,424.6319 0,568.4717 1.1248,293.6406 -299.65716,444.4681 -345.28636,658.975 0.38408,117.3364 1.42358,2056.885 1.42358,2056.885 z"
       id="path5090"
       inkscape:connector-curvature="0"
       sodipodi:nodetypes="ccccccccc" />
    <rect
       style="fill:#76544b;fill-opacity:1;fill-rule:evenodd;stroke:none;stroke-width:14.73855877;stroke-linecap:round;stroke-linejoin:miter;stroke-miterlimit:4;stroke-dasharray:none;stroke-opacity:1"
       id="rect5092"
       width="244.83485"
       height="475.4418"
       x="980.88757"
       y="-2388.4395" />
    <rect
       style="fill:#ffffff;fill-opacity:1;fill-rule:evenodd;stroke:none;stroke-width:15;stroke-linecap:round;stroke-linejoin:miter;stroke-miterlimit:4;stroke-dasharray:none;stroke-opacity:1"
       id="rect5094"
       width="752.62708"
       height="648.08704"
       x="726.77075"
       y="-521.86938"
       ry="84.533104" />
    <path
       style="fill:#c8c8c8;fill-opacity:1;fill-rule:evenodd;stroke:#000000;stroke-width:0.84180021px;stroke-linecap:butt;stroke-linejoin:miter;stroke-opacity:1"
       d="m 2964.7794,-466.15476 c -12.3345,0.18087 -27.0881,0.36183 -42.995,0.54295 11.7445,3.01533 14.6334,66.52532 19.4961,135.1221 4.8626,68.59678 16.5518,199.19032 -40.0798,282.91063 -56.6315,83.720315 -78.8153,75.001693 -166.0024,106.991124 -87.1871,31.98943 -97.2169,36.02167 -131.9675,37.484487 -34.7506,1.462902 -83.2917,5.678169 -138.7563,-3.946254 -55.4646,-9.624421 -116.3542,-25.448025 -195.2087,-64.163784 -78.8546,-38.7156737 -82.8287,-49.827601 -111.3816,-99.884066 -28.5529,-50.056477 -36.8101,-196.867107 -32.5649,-250.491357 4.2453,-53.62415 12.3257,-138.62754 12.23,-141.91007 -16.0489,-0.17059 -26.1413,-0.36812 -38.5323,-0.60036 -116.3576,729.53821 305.0305,436.142078 373.2744,696.82549 -1.2485,174.39669 1.8672,387.43075 0,542.66147 -0.7952,72.20841 -308.1616,-15.12077 -293.1474,111.43077 393.8923,0.34714 366.2897,-11.34961 705.5084,-9.08769 10.8904,-124.0398 -281.6132,-18.1482 -281.422,-98.23219 -1.941,-160.85511 -1.0115,-333.87134 0,-542.66148 58.2814,-255.66939 482.4846,30.10722 361.549,-702.99177 z"
       id="path5098"
       inkscape:connector-curvature="0"
       sodipodi:nodetypes="cczzzzzzzzccccccccc" />
    <path
       style="fill:none;fill-rule:evenodd;stroke:#000000;stroke-width:0.84180021px;stroke-linecap:butt;stroke-linejoin:miter;stroke-opacity:1"
       d="m 2127.7149,-242.10158 c 590.4094,4.54382 815.0532,2.05549 815.0532,2.05549"
       id="path5124"
       inkscape:connector-curvature="0"
       sodipodi:nodetypes="cc" />
    <rect
       style="fill:#c8c8c8;fill-opacity:1;fill-rule:evenodd;stroke:none;stroke-width:15;stroke-linecap:round;stroke-linejoin:miter;stroke-miterlimit:4;stroke-dasharray:none;stroke-opacity:1"
       id="rect5130"
       width="849.78314"
       height="27.931061"
       x="2105.2251"
       y="-464.46185" />
    <path
       style="fill:#800000;fill-opacity:1;fill-rule:evenodd;stroke:none;stroke-width:15;stroke-linecap:round;stroke-linejoin:miter;stroke-miterlimit:4;stroke-dasharray:none;stroke-opacity:1"
       d="m 2490.7515,94.689357 c -23.5647,-2.65429 -68.9832,-12.114507 -99.2873,-20.680492 -65.7041,-18.572428 -163.6434,-64.7154489 -192.4984,-90.693468 -20.0335,-18.035959 -45.1824,-62.888224 -53.5497,-95.503647 -6.7398,-26.27181 -16.9297,-96.35705 -16.9297,-116.44142 l 0,-9.83533 407.1327,0 407.1327,0 0,25.7596 c 0,30.66414 -7.4797,78.46941 -16.9431,108.28819 -14.273,44.973815 -57.4902,104.27328731 -89.2401,122.448759 -9.4781,5.425732 -57.1395,23.912777 -105.9145,41.082302 -72.5713,25.546272 -94.4178,31.817543 -120.2555,34.52087 -30.4495,3.185751 -95.6264,3.760293 -119.6471,1.054636 z"
       id="path4147"
       inkscape:connector-curvature="0" />
    <path
       style="fill:#c8c8c8;fill-opacity:1;fill-rule:evenodd;stroke:none;stroke-width:15;stroke-linecap:round;stroke-linejoin:miter;stroke-miterlimit:4;stroke-dasharray:none;stroke-opacity:1"
       d="m 2125.8627,-273.44213 c 0,-31.0668 7.6401,-134.50388 11.3305,-153.40005 l 2.033,-10.40944 395.7928,0 c 217.6861,0 395.849,1.5614 395.9175,3.46979 0.069,1.90846 2.9952,40.94399 6.5035,86.74574 3.5085,45.80175 6.4216,87.9601 6.4734,93.68532 l 0.094,10.40953 -409.0724,0 -409.0726,0 0,-30.50089 z"
       id="path4141"
       inkscape:connector-curvature="0" />
  </g>
</svg>
